<?xml version="1.0" standalone="no"?>
<!DOCTYPE svg PUBLIC "-//W3C//DTD SVG 20010904//EN"
 "http://www.w3.org/TR/2001/REC-SVG-20010904/DTD/svg10.dtd">
<svg version="1.0" xmlns="http://www.w3.org/2000/svg"
 width="700.000000pt" height="700.000000pt" viewBox="0 0 700.000000 700.000000"
 preserveAspectRatio="xMidYMid meet">
<metadata>
Created by potrace 1.11, written by Peter Selinger 2001-2013
</metadata>
<g transform="translate(0.000000,700.000000) scale(0.100000,-0.100000)"
fill="#000000" stroke="none">
<path d="M2334 6126 l-1 -291 -1009 -2 c-555 0 -1015 -2 -1021 -2 -10 -1 -13
-66 -13 -289 l0 -288 1615 0 c889 1 1622 -1 1630 -4 24 -9 -97 -306 -235 -575
-103 -203 -181 -333 -306 -515 -88 -127 -260 -350 -336 -433 l-34 -37 -78 90
c-183 214 -365 476 -516 742 l-82 147 -289 0 c-159 0 -289 -3 -289 -6 0 -13
158 -325 221 -433 129 -226 373 -578 502 -727 14 -15 51 -59 84 -97 l58 -68
-260 -258 c-143 -142 -345 -342 -450 -445 -468 -461 -765 -757 -765 -763 0 -4
91 -98 203 -210 l203 -203 729 730 730 730 447 -447 c245 -246 451 -448 456
-450 5 -1 19 26 32 60 33 95 140 380 149 403 17 38 41 105 41 114 0 9 -9 18
-442 447 l-293 291 112 134 c62 74 117 139 121 145 37 43 163 220 229 319 255
385 441 766 600 1232 l28 83 426 0 427 0 0 290 0 290 -21 1 c-12 0 -472 2
-1022 2 l-999 2 0 287 c0 253 -1 288 -15 292 -9 3 -140 4 -292 4 l-275 -1 0
-291z"/>
<path d="M4816 4074 c-6 -6 -197 -507 -424 -1115 -227 -607 -417 -1113 -422
-1124 -5 -11 -86 -227 -180 -480 -94 -253 -175 -469 -180 -480 -5 -11 -29 -74
-54 -140 -24 -66 -47 -127 -50 -136 -6 -13 25 -15 285 -15 l291 1 19 50 c11
28 24 59 28 70 5 11 64 169 131 350 67 182 125 339 130 350 4 11 11 28 14 37
5 16 51 17 698 17 l693 0 74 -197 c41 -108 82 -217 92 -242 10 -25 48 -126 85
-225 36 -99 70 -187 75 -195 6 -13 50 -15 293 -16 213 0 286 2 286 11 0 7 -46
133 -101 281 -56 148 -114 303 -129 344 -26 70 -328 875 -600 1600 -65 173
-198 526 -294 784 -97 259 -179 472 -181 475 -11 10 -568 6 -579 -5z m359
-959 c38 -99 74 -196 81 -215 26 -73 316 -845 320 -851 2 -3 -208 -6 -467 -6
l-471 0 7 26 c4 14 29 87 57 161 28 74 57 151 64 170 20 56 223 599 248 665
13 33 38 99 56 148 18 48 34 86 35 85 1 -2 33 -84 70 -183z"/>
</g>
</svg>
