<?xml version="1.0" standalone="no"?>
<!DOCTYPE svg PUBLIC "-//W3C//DTD SVG 20010904//EN"
 "http://www.w3.org/TR/2001/REC-SVG-20010904/DTD/svg10.dtd">
<svg version="1.0" xmlns="http://www.w3.org/2000/svg"
 width="700.000000pt" height="700.000000pt" viewBox="0 0 700.000000 700.000000"
 preserveAspectRatio="xMidYMid meet">
<metadata>
Created by potrace 1.11, written by Peter Selinger 2001-2013
</metadata>
<g transform="translate(0.000000,700.000000) scale(0.100000,-0.100000)"
fill="#000000" stroke="none">
<path d="M2620 6993 c-532 -53 -970 -208 -1382 -490 -157 -107 -255 -189 -408
-343 -383 -382 -640 -848 -759 -1373 -50 -220 -65 -358 -65 -602 -1 -191 8
-387 18 -404 2 -3 7 -30 10 -60 38 -323 196 -747 398 -1071 50 -79 179 -262
198 -280 3 -3 30 -34 60 -70 167 -196 411 -408 626 -541 38 -24 79 -50 90 -56
58 -38 344 -174 431 -206 87 -32 236 -80 283 -92 164 -40 302 -64 475 -82 130
-13 519 -6 610 11 11 2 40 7 65 10 25 4 107 21 184 37 595 130 1102 429 1531
903 165 182 363 498 474 757 57 133 129 344 146 428 51 252 56 282 72 441 10
96 9 402 0 500 -37 366 -127 687 -284 1005 -371 752 -1069 1312 -1874 1503
-127 30 -220 48 -299 57 -25 3 -61 8 -80 11 -41 6 -468 12 -520 7z m370 -437
c390 -17 811 -154 1160 -380 265 -171 520 -421 684 -671 32 -50 67 -102 78
-117 29 -43 133 -255 166 -338 66 -167 129 -401 147 -548 2 -15 7 -56 12 -92
15 -127 8 -488 -12 -605 -67 -381 -187 -692 -377 -975 -89 -133 -89 -133 -188
-248 -311 -362 -756 -639 -1212 -753 -136 -35 -146 -37 -208 -45 -25 -3 -47
-7 -50 -9 -17 -10 -190 -20 -345 -20 -237 0 -343 11 -550 59 -878 204 -1575
897 -1790 1778 -14 56 -28 123 -31 147 -3 25 -7 48 -9 51 -4 6 -8 43 -21 181
-6 75 -6 290 1 379 18 216 96 551 165 705 193 431 395 704 717 968 317 261
787 468 1163 513 30 3 58 8 62 10 4 3 69 7 145 11 76 3 140 7 141 9 2 1 9 1
15 -1 7 -2 68 -6 137 -9z"/>
<path d="M1530 5031 l0 -219 350 0 350 0 0 219 0 219 -350 0 -350 0 0 -219z"/>
<path d="M2547 5243 c-2 -5 -3 -102 -3 -218 l1 -210 806 -2 806 -1 1 219 0
219 -803 0 c-442 0 -806 -3 -808 -7z"/>
<path d="M1534 4371 c-2 -2 -4 -100 -4 -218 l0 -213 23 -1 c29 -1 1918 -1
1935 0 10 1 12 48 10 219 l-3 217 -978 0 c-538 0 -981 -2 -983 -4z"/>
<path d="M1530 3282 l0 -219 805 0 c601 -1 805 2 806 10 1 7 2 105 3 220 l2
207 -808 0 -808 0 0 -218z"/>
<path d="M3460 3460 c-1 -22 -1 -110 -1 -195 0 -85 0 -166 1 -179 l0 -24 347
1 348 2 0 215 0 215 -347 3 -348 2 0 -40z"/>
<path d="M5092 1906 l-152 -153 841 -842 c463 -462 844 -841 845 -841 6 0 304
300 304 306 0 6 -1677 1684 -1683 1684 -1 0 -71 -69 -155 -154z"/>
</g>
</svg>
